<svg class="site-logo" xmlns="http://www.w3.org/2000/svg" version="1.1" x="0" y="0" viewBox="0 0 76.38 12.81" enable-background="new 0 0 76.381 12.81" xml:space="preserve">
				  <g class="logo-container">
				    <path id="XMLID_335_" d="M73.55 1.46c0.76 0 1.37 0.61 1.37 1.37s-0.61 1.37-1.37 1.37c-0.75 0-1.37-0.61-1.37-1.37S72.8 1.46 73.55 1.46M73.55 0c-1.56 0-2.83 1.27-2.83 2.83s1.27 2.83 2.83 2.83c1.56 0 2.83-1.27 2.83-2.83S75.11 0 73.55 0L73.55 0z"></path>
				    <path id="XMLID_320_" d="M4.38 5.54C4 5.54 3.68 5.62 3.43 5.79 3.17 5.97 2.97 6.19 2.81 6.46 2.64 6.73 2.53 7.03 2.46 7.36c-0.07 0.33-0.1 0.65-0.1 0.97 0 0.31 0.03 0.63 0.1 0.95 0.07 0.32 0.18 0.61 0.33 0.87 0.15 0.26 0.35 0.47 0.61 0.64 0.26 0.17 0.57 0.25 0.93 0.25 0.57 0 1-0.16 1.31-0.47 0.31-0.32 0.5-0.74 0.57-1.27h2.28c-0.16 1.14-0.6 2.01-1.33 2.61 -0.73 0.6-1.67 0.9-2.81 0.9 -0.64 0-1.24-0.11-1.77-0.32 -0.54-0.22-1-0.52-1.37-0.91 -0.38-0.39-0.67-0.85-0.88-1.39C0.11 9.65 0 9.06 0 8.42 0 7.75 0.1 7.13 0.29 6.56c0.19-0.57 0.48-1.06 0.86-1.48C1.53 4.66 1.99 4.34 2.53 4.11c0.54-0.23 1.17-0.35 1.86-0.35 0.51 0 1 0.07 1.47 0.2C6.34 4.09 6.76 4.29 7.13 4.56c0.37 0.27 0.67 0.61 0.91 1.01 0.23 0.41 0.37 0.89 0.4 1.44H6.13C5.97 6.03 5.39 5.54 4.38 5.54z"></path>
						<path id="XMLID_322_" d="M11.59 1.46v11.14H9.22V1.64L11.59 1.46z"></path>
				    <path id="XMLID_324_" d="M12.83 6.43c0.21-0.56 0.51-1.04 0.9-1.43 0.39-0.39 0.85-0.7 1.4-0.92 0.54-0.22 1.15-0.32 1.83-0.32 0.68 0 1.29 0.11 1.84 0.32 0.55 0.22 1.02 0.52 1.41 0.92 0.39 0.39 0.69 0.87 0.9 1.43 0.21 0.56 0.32 1.19 0.32 1.87 0 0.69-0.11 1.31-0.32 1.86 -0.21 0.56-0.51 1.03-0.9 1.42 -0.39 0.39-0.86 0.7-1.41 0.91 -0.55 0.21-1.16 0.32-1.84 0.32 -0.68 0-1.29-0.11-1.83-0.32 -0.54-0.21-1.01-0.51-1.4-0.91 -0.39-0.39-0.69-0.87-0.9-1.42 -0.21-0.56-0.32-1.18-0.32-1.86C12.52 7.61 12.62 6.99 12.83 6.43zM14.98 9.31c0.07 0.33 0.18 0.62 0.34 0.88 0.16 0.26 0.38 0.47 0.64 0.62 0.27 0.16 0.6 0.23 1 0.23s0.74-0.08 1.01-0.23c0.27-0.15 0.49-0.36 0.65-0.62 0.16-0.26 0.28-0.56 0.34-0.88 0.07-0.33 0.1-0.66 0.1-1.01 0-0.34-0.03-0.68-0.1-1.01 -0.07-0.33-0.18-0.63-0.34-0.88 -0.16-0.25-0.38-0.46-0.65-0.62 -0.27-0.16-0.61-0.24-1.01-0.24s-0.73 0.08-1 0.24c-0.27 0.16-0.48 0.37-0.64 0.62 -0.16 0.26-0.28 0.55-0.34 0.88 -0.07 0.33-0.1 0.67-0.1 1.01C14.88 8.64 14.91 8.98 14.98 9.31z"></path>
				    <path id="XMLID_327_" d="M28.11 12.59v-1.2h-0.05c-0.3 0.5-0.69 0.86-1.16 1.08 -0.48 0.22-0.96 0.33-1.46 0.33 -0.63 0-1.15-0.08-1.56-0.25 -0.4-0.17-0.72-0.4-0.96-0.71 -0.23-0.3-0.4-0.68-0.49-1.11 -0.09-0.44-0.14-0.92-0.14-1.46V3.99h2.36v4.86c0 0.71 0.11 1.24 0.33 1.59 0.22 0.35 0.62 0.52 1.18 0.52 0.64 0 1.11-0.19 1.4-0.57 0.29-0.38 0.43-1.01 0.43-1.89V3.99h2.36v8.61H28.11z"></path>
				    <path id="XMLID_329_" d="M37.6 11.5c-0.28 0.47-0.64 0.8-1.09 1.01 -0.45 0.21-0.96 0.31-1.52 0.31 -0.64 0-1.21-0.12-1.7-0.37 -0.49-0.25-0.89-0.59-1.21-1.01 -0.32-0.43-0.56-0.92-0.72-1.47 -0.16-0.56-0.24-1.13-0.24-1.73 0-0.58 0.08-1.13 0.24-1.67 0.16-0.54 0.4-1.01 0.72-1.42 0.32-0.41 0.71-0.74 1.19-0.99 0.48-0.25 1.03-0.37 1.67-0.37 0.51 0 1 0.11 1.46 0.32 0.46 0.22 0.82 0.54 1.09 0.96h0.03v-3.4l2.36-0.18v11.14h-2.25v-1.1H37.6zM37.5 7.24c-0.07-0.33-0.18-0.62-0.34-0.87C37 6.13 36.79 5.93 36.54 5.77c-0.25-0.15-0.58-0.23-0.96-0.23 -0.39 0-0.72 0.08-0.98 0.23 -0.27 0.16-0.48 0.36-0.64 0.62 -0.16 0.26-0.28 0.55-0.35 0.87 -0.07 0.33-0.11 0.67-0.11 1.02 0 0.33 0.04 0.67 0.12 1 0.08 0.33 0.2 0.63 0.38 0.89 0.17 0.26 0.39 0.47 0.65 0.63 0.26 0.16 0.57 0.24 0.94 0.24 0.39 0 0.71-0.08 0.97-0.23 0.26-0.15 0.47-0.36 0.62-0.62 0.16-0.26 0.27-0.56 0.33-0.89 0.07-0.33 0.1-0.68 0.1-1.03C37.6 7.91 37.57 7.57 37.5 7.24z"></path>
				    <path id="XMLID_332_" d="M43.25 3.99v1.2h0.05c0.3-0.5 0.69-0.86 1.17-1.09 0.48-0.23 0.97-0.34 1.47-0.34 0.63 0 1.15 0.09 1.56 0.26 0.41 0.17 0.72 0.41 0.96 0.72 0.23 0.31 0.4 0.68 0.49 1.12 0.09 0.44 0.14 0.92 0.14 1.46v5.29h-2.36V7.73c0-0.71-0.11-1.24-0.33-1.59 -0.22-0.35-0.62-0.52-1.18-0.52 -0.64 0-1.11 0.19-1.4 0.57 -0.29 0.38-0.43 1.01-0.43 1.89v4.51h-2.36V3.99H43.25z"></path><path id="XMLID_334_" d="M52.63 3.99v8.61h-2.36V3.99H52.63z"></path>
				    <path id="XMLID_337_" d="M56.25 3.99v1.2h0.05c0.3-0.5 0.69-0.86 1.17-1.09 0.48-0.23 0.97-0.34 1.47-0.34 0.63 0 1.15 0.09 1.56 0.26 0.41 0.17 0.72 0.41 0.96 0.72 0.23 0.31 0.4 0.68 0.49 1.12 0.09 0.44 0.14 0.92 0.14 1.46v5.29H59.71V7.73c0-0.71-0.11-1.24-0.33-1.59 -0.22-0.35-0.62-0.52-1.18-0.52 -0.64 0-1.11 0.19-1.4 0.57 -0.29 0.38-0.43 1.01-0.43 1.89v4.51h-2.36V3.99H56.25z"></path>
				    <path id="XMLID_339_" d="M65.69 10.53c0.36 0.34 0.87 0.52 1.53 0.52 0.48 0 0.89-0.12 1.23-0.36 0.34-0.24 0.56-0.49 0.63-0.76h2.08c-0.33 1.03-0.84 1.77-1.53 2.21 -0.69 0.44-1.52 0.67-2.5 0.67 -0.68 0-1.29-0.11-1.83-0.32 -0.54-0.22-1-0.52-1.38-0.92 -0.38-0.4-0.67-0.88-0.87-1.43 -0.2-0.56-0.31-1.16-0.31-1.83 0-0.64 0.11-1.24 0.32-1.8 0.21-0.56 0.51-1.03 0.9-1.44 0.39-0.4 0.85-0.72 1.39-0.96 0.54-0.23 1.14-0.35 1.79-0.35 0.73 0 1.37 0.14 1.91 0.42 0.54 0.28 0.99 0.66 1.34 1.14 0.35 0.48 0.6 1.02 0.76 1.63 0.16 0.61 0.21 1.25 0.17 1.91h-6.21C65.14 9.63 65.34 10.19 65.69 10.53zM68.36 6c-0.28-0.31-0.71-0.47-1.29-0.47 -0.38 0-0.69 0.06-0.94 0.19 -0.25 0.13-0.45 0.29-0.6 0.47 -0.15 0.19-0.25 0.39-0.32 0.6 -0.06 0.21-0.1 0.4-0.11 0.57h3.85C68.85 6.77 68.65 6.31 68.36 6z"></path>
				  </g>
</svg>