<?xml version="1.0" encoding="UTF-8"?>
<svg width="77px" height="13px" viewBox="0 0 77 13" version="1.1" xmlns="http://www.w3.org/2000/svg" xmlns:xlink="http://www.w3.org/1999/xlink">
    <!-- Generator: Sketch 48.2 (47327) - http://www.bohemiancoding.com/sketch -->
    <title>c9</title>
    <desc>Created with Sketch.</desc>
    <defs></defs>
    <g id="Page-1" stroke="none" stroke-width="1" fill="none" fill-rule="evenodd">
        <g id="c9" fill="#000000" fill-rule="nonzero">
            <path d="M73.55,1.46 C74.31,1.46 74.92,2.07 74.92,2.83 C74.92,3.59 74.31,4.2 73.55,4.2 C72.8,4.2 72.18,3.59 72.18,2.83 C72.18,2.07 72.8,1.46 73.55,1.46 Z M73.55,0 C71.99,0 70.72,1.27 70.72,2.83 C70.72,4.39 71.99,5.66 73.55,5.66 C75.11,5.66 76.38,4.39 76.38,2.83 C76.38,1.27 75.11,0 73.55,0 Z" id="XMLID_335_"></path>
            <path d="M4.38,5.54 C4,5.54 3.68,5.62 3.43,5.79 C3.17,5.97 2.97,6.19 2.81,6.46 C2.64,6.73 2.53,7.03 2.46,7.36 C2.39,7.69 2.36,8.01 2.36,8.33 C2.36,8.64 2.39,8.96 2.46,9.28 C2.53,9.6 2.64,9.89 2.79,10.15 C2.94,10.41 3.14,10.62 3.4,10.79 C3.66,10.96 3.97,11.04 4.33,11.04 C4.9,11.04 5.33,10.88 5.64,10.57 C5.95,10.25 6.14,9.83 6.21,9.3 L8.49,9.3 C8.33,10.44 7.89,11.31 7.16,11.91 C6.43,12.51 5.49,12.81 4.35,12.81 C3.71,12.81 3.11,12.7 2.58,12.49 C2.04,12.27 1.58,11.97 1.21,11.58 C0.83,11.19 0.54,10.73 0.33,10.19 C0.11,9.65 0,9.06 0,8.42 C0,7.75 0.1,7.13 0.29,6.56 C0.48,5.99 0.77,5.5 1.15,5.08 C1.53,4.66 1.99,4.34 2.53,4.11 C3.07,3.88 3.7,3.76 4.39,3.76 C4.9,3.76 5.39,3.83 5.86,3.96 C6.34,4.09 6.76,4.29 7.13,4.56 C7.5,4.83 7.8,5.17 8.04,5.57 C8.27,5.98 8.41,6.46 8.44,7.01 L6.13,7.01 C5.97,6.03 5.39,5.54 4.38,5.54 Z" id="XMLID_320_"></path>
            <polygon id="XMLID_322_" points="11.59 1.46 11.59 12.6 9.22 12.6 9.22 1.64"></polygon>
            <path d="M12.83,6.43 C13.04,5.87 13.34,5.39 13.73,5 C14.12,4.61 14.58,4.3 15.13,4.08 C15.67,3.86 16.28,3.76 16.96,3.76 C17.64,3.76 18.25,3.87 18.8,4.08 C19.35,4.3 19.82,4.6 20.21,5 C20.6,5.39 20.9,5.87 21.11,6.43 C21.32,6.99 21.43,7.62 21.43,8.3 C21.43,8.99 21.32,9.61 21.11,10.16 C20.9,10.72 20.6,11.19 20.21,11.58 C19.82,11.97 19.35,12.28 18.8,12.49 C18.25,12.7 17.64,12.81 16.96,12.81 C16.28,12.81 15.67,12.7 15.13,12.49 C14.59,12.28 14.12,11.98 13.73,11.58 C13.34,11.19 13.04,10.71 12.83,10.16 C12.62,9.6 12.51,8.98 12.51,8.3 C12.52,7.61 12.62,6.99 12.83,6.43 Z M14.98,9.31 C15.05,9.64 15.16,9.93 15.32,10.19 C15.48,10.45 15.7,10.66 15.96,10.81 C16.23,10.97 16.56,11.04 16.96,11.04 C17.36,11.04 17.7,10.96 17.97,10.81 C18.24,10.66 18.46,10.45 18.62,10.19 C18.78,9.93 18.9,9.63 18.96,9.31 C19.03,8.98 19.06,8.65 19.06,8.3 C19.06,7.96 19.03,7.62 18.96,7.29 C18.89,6.96 18.78,6.66 18.62,6.41 C18.46,6.16 18.24,5.95 17.97,5.79 C17.7,5.63 17.36,5.55 16.96,5.55 C16.56,5.55 16.23,5.63 15.96,5.79 C15.69,5.95 15.48,6.16 15.32,6.41 C15.16,6.67 15.04,6.96 14.98,7.29 C14.91,7.62 14.88,7.96 14.88,8.3 C14.88,8.64 14.91,8.98 14.98,9.31 Z" id="XMLID_324_"></path>
            <path d="M28.11,12.59 L28.11,11.39 L28.06,11.39 C27.76,11.89 27.37,12.25 26.9,12.47 C26.42,12.69 25.94,12.8 25.44,12.8 C24.81,12.8 24.29,12.72 23.88,12.55 C23.48,12.38 23.16,12.15 22.92,11.84 C22.69,11.54 22.52,11.16 22.43,10.73 C22.34,10.29 22.29,9.81 22.29,9.27 L22.29,3.99 L24.65,3.99 L24.65,8.85 C24.65,9.56 24.76,10.09 24.98,10.44 C25.2,10.79 25.6,10.96 26.16,10.96 C26.8,10.96 27.27,10.77 27.56,10.39 C27.85,10.01 27.99,9.38 27.99,8.5 L27.99,3.99 L30.35,3.99 L30.35,12.6 L28.11,12.6 L28.11,12.59 Z" id="XMLID_327_"></path>
            <path d="M37.6,11.5 C37.32,11.97 36.96,12.3 36.51,12.51 C36.06,12.72 35.55,12.82 34.99,12.82 C34.35,12.82 33.78,12.7 33.29,12.45 C32.8,12.2 32.4,11.86 32.08,11.44 C31.76,11.01 31.52,10.52 31.36,9.97 C31.2,9.41 31.12,8.84 31.12,8.24 C31.12,7.66 31.2,7.11 31.36,6.57 C31.52,6.03 31.76,5.56 32.08,5.15 C32.4,4.74 32.79,4.41 33.27,4.16 C33.75,3.91 34.3,3.79 34.94,3.79 C35.45,3.79 35.94,3.9 36.4,4.11 C36.86,4.33 37.22,4.65 37.49,5.07 L37.52,5.07 L37.52,1.67 L39.88,1.49 L39.88,12.63 L37.63,12.63 L37.63,11.53 L37.6,11.53 L37.6,11.5 Z M37.5,7.24 C37.43,6.91 37.32,6.62 37.16,6.37 C37,6.13 36.79,5.93 36.54,5.77 C36.29,5.62 35.96,5.54 35.58,5.54 C35.19,5.54 34.86,5.62 34.6,5.77 C34.33,5.93 34.12,6.13 33.96,6.39 C33.8,6.65 33.68,6.94 33.61,7.26 C33.54,7.59 33.5,7.93 33.5,8.28 C33.5,8.61 33.54,8.95 33.62,9.28 C33.7,9.61 33.82,9.91 34,10.17 C34.17,10.43 34.39,10.64 34.65,10.8 C34.91,10.96 35.22,11.04 35.59,11.04 C35.98,11.04 36.3,10.96 36.56,10.81 C36.82,10.66 37.03,10.45 37.18,10.19 C37.34,9.93 37.45,9.63 37.51,9.3 C37.58,8.97 37.61,8.62 37.61,8.27 C37.6,7.91 37.57,7.57 37.5,7.24 Z" id="XMLID_329_"></path>
            <path d="M43.25,3.99 L43.25,5.19 L43.3,5.19 C43.6,4.69 43.99,4.33 44.47,4.1 C44.95,3.87 45.44,3.76 45.94,3.76 C46.57,3.76 47.09,3.85 47.5,4.02 C47.91,4.19 48.22,4.43 48.46,4.74 C48.69,5.05 48.86,5.42 48.95,5.86 C49.04,6.3 49.09,6.78 49.09,7.32 L49.09,12.61 L46.73,12.61 L46.73,7.73 C46.73,7.02 46.62,6.49 46.4,6.14 C46.18,5.79 45.78,5.62 45.22,5.62 C44.58,5.62 44.11,5.81 43.82,6.19 C43.53,6.57 43.39,7.2 43.39,8.08 L43.39,12.59 L41.03,12.59 L41.03,3.99 L43.25,3.99 Z" id="XMLID_332_"></path>
            <polygon id="XMLID_334_" points="52.63 3.99 52.63 12.6 50.27 12.6 50.27 3.99"></polygon>
            <path d="M56.25,3.99 L56.25,5.19 L56.3,5.19 C56.6,4.69 56.99,4.33 57.47,4.1 C57.95,3.87 58.44,3.76 58.94,3.76 C59.57,3.76 60.09,3.85 60.5,4.02 C60.91,4.19 61.22,4.43 61.46,4.74 C61.69,5.05 61.86,5.42 61.95,5.86 C62.04,6.3 62.09,6.78 62.09,7.32 L62.09,12.61 L59.71,12.61 L59.71,7.73 C59.71,7.02 59.6,6.49 59.38,6.14 C59.16,5.79 58.76,5.62 58.2,5.62 C57.56,5.62 57.09,5.81 56.8,6.19 C56.51,6.57 56.37,7.2 56.37,8.08 L56.37,12.59 L54.01,12.59 L54.01,3.99 L56.25,3.99 Z" id="XMLID_337_"></path>
            <path d="M65.69,10.53 C66.05,10.87 66.56,11.05 67.22,11.05 C67.7,11.05 68.11,10.93 68.45,10.69 C68.79,10.45 69.01,10.2 69.08,9.93 L71.16,9.93 C70.83,10.96 70.32,11.7 69.63,12.14 C68.94,12.58 68.11,12.81 67.13,12.81 C66.45,12.81 65.84,12.7 65.3,12.49 C64.76,12.27 64.3,11.97 63.92,11.57 C63.54,11.17 63.25,10.69 63.05,10.14 C62.85,9.58 62.74,8.98 62.74,8.31 C62.74,7.67 62.85,7.07 63.06,6.51 C63.27,5.95 63.57,5.48 63.96,5.07 C64.35,4.67 64.81,4.35 65.35,4.11 C65.89,3.88 66.49,3.76 67.14,3.76 C67.87,3.76 68.51,3.9 69.05,4.18 C69.59,4.46 70.04,4.84 70.39,5.32 C70.74,5.8 70.99,6.34 71.15,6.95 C71.31,7.56 71.36,8.2 71.32,8.86 L65.11,8.86 C65.14,9.63 65.34,10.19 65.69,10.53 Z M68.36,6 C68.08,5.69 67.65,5.53 67.07,5.53 C66.69,5.53 66.38,5.59 66.13,5.72 C65.88,5.85 65.68,6.01 65.53,6.19 C65.38,6.38 65.28,6.58 65.21,6.79 C65.15,7 65.11,7.19 65.1,7.36 L68.95,7.36 C68.85,6.77 68.65,6.31 68.36,6 Z" id="XMLID_339_"></path>
        </g>
    </g>
</svg>